<svg width="388" height="692" viewBox="0 0 388 692" fill="none" xmlns="http://www.w3.org/2000/svg">
<g clip-path="url(#clip0_214_3059)">
<rect width="1440" height="1024" transform="translate(-206 -229)" fill="white"/>
<g filter="url(#filter0_d_214_3059)">
<rect width="1004" height="692" rx="30" fill="white"/>
<rect x="0.25" y="0.25" width="1003.5" height="691.5" rx="29.75" stroke="#594E4E" stroke-width="0.5"/>
</g>
<path d="M369 567.347C369 612.122 337.064 683.457 325.029 692H22.5942C7.7227 692 0.668277 677.244 -1 669.865V18.6398C-1 5.59194 10.9163 0.776673 16.8744 1.77762e-05L165.589 0C214.804 131.255 312.874 345.884 335.754 396.677C364.353 460.168 369 522.198 369 567.347Z" fill="#01C7BE" fill-opacity="0.37"/>
<g filter="url(#filter1_d_214_3059)">
<rect x="404" y="568" width="260" height="70" rx="35" fill="#01C7BE"/>
</g>
<path d="M52 253.51H31V249.49L46.12 237.1V239.05H31V234.25H52V238.24L36.88 250.66V248.71H52V253.51ZM52.36 219.081C52.36 220.741 52.09 222.281 51.55 223.701C51.01 225.101 50.25 226.321 49.27 227.361C48.29 228.381 47.14 229.181 45.82 229.761C44.5 230.321 43.06 230.601 41.5 230.601C39.94 230.601 38.5 230.321 37.18 229.761C35.86 229.181 34.71 228.371 33.73 227.331C32.75 226.291 31.99 225.071 31.45 223.671C30.91 222.271 30.64 220.751 30.64 219.111C30.64 217.451 30.91 215.931 31.45 214.551C31.99 213.151 32.75 211.941 33.73 210.921C34.71 209.881 35.86 209.071 37.18 208.491C38.48 207.911 39.92 207.621 41.5 207.621C43.06 207.621 44.51 207.911 45.85 208.491C47.17 209.071 48.32 209.881 49.3 210.921C50.26 211.941 51.01 213.151 51.55 214.551C52.09 215.931 52.36 217.441 52.36 219.081ZM48.22 219.111C48.22 218.171 48.06 217.311 47.74 216.531C47.42 215.731 46.96 215.031 46.36 214.431C45.76 213.831 45.05 213.371 44.23 213.051C43.41 212.711 42.5 212.541 41.5 212.541C40.5 212.541 39.59 212.711 38.77 213.051C37.95 213.371 37.24 213.831 36.64 214.431C36.04 215.011 35.58 215.701 35.26 216.501C34.94 217.301 34.78 218.171 34.78 219.111C34.78 220.051 34.94 220.921 35.26 221.721C35.58 222.501 36.04 223.191 36.64 223.791C37.24 224.391 37.95 224.861 38.77 225.201C39.59 225.521 40.5 225.681 41.5 225.681C42.48 225.681 43.39 225.521 44.23 225.201C45.05 224.861 45.76 224.401 46.36 223.821C46.96 223.221 47.42 222.521 47.74 221.721C48.06 220.921 48.22 220.051 48.22 219.111ZM52 198.343L31 207.403V202.153L49.6 194.233V197.323L31 189.283V184.453L52 193.543V198.343ZM52 186.163L31 176.803L31 172.003L52 162.613V167.713L33.46 175.393V173.473L52 181.183V186.163ZM47.5 181.483L43.81 180.193V169.393L47.5 168.073L47.5 181.483ZM52 160.434H31V150.174C31 147.534 31.5 145.554 32.5 144.234C33.5 142.894 34.82 142.224 36.46 142.224C37.56 142.224 38.52 142.494 39.34 143.034C40.14 143.574 40.76 144.314 41.2 145.254C41.64 146.194 41.86 147.274 41.86 148.494L40.63 147.924C40.63 146.604 40.85 145.434 41.29 144.414C41.71 143.394 42.34 142.604 43.18 142.044C44.02 141.464 45.05 141.174 46.27 141.174C48.07 141.174 49.48 141.884 50.5 143.304C51.5 144.724 52 146.814 52 149.574V160.434ZM48.34 155.604V149.934C48.34 148.674 48.14 147.724 47.74 147.084C47.32 146.424 46.66 146.094 45.76 146.094C44.88 146.094 44.23 146.424 43.81 147.084C43.37 147.724 43.15 148.674 43.15 149.934V155.964H39.61V150.774C39.61 149.594 39.41 148.694 39.01 148.074C38.59 147.434 37.96 147.114 37.12 147.114C36.3 147.114 35.69 147.434 35.29 148.074C34.87 148.694 34.66 149.594 34.66 150.774V155.604H48.34ZM52 132.714H43.42L46.36 131.604L31 140.844V135.684L42.79 128.604V131.574L31 124.464V119.694L46.36 128.934L43.42 127.854H52V132.714ZM52 113.721H34.96V120.441H31L31 102.141H34.96V108.861H52L52 113.721ZM39.46 95.0556V84.9456H43.24V95.0556H39.46ZM48.1 94.6956V83.2656H52V99.5256H31V83.6556H34.9V94.6956H48.1Z" fill="white" fill-opacity="0.59"/>
</g>
<defs>
<filter id="filter0_d_214_3059" x="-21" y="-17" width="1046" height="734" filterUnits="userSpaceOnUse" color-interpolation-filters="sRGB">
<feFlood flood-opacity="0" result="BackgroundImageFix"/>
<feColorMatrix in="SourceAlpha" type="matrix" values="0 0 0 0 0 0 0 0 0 0 0 0 0 0 0 0 0 0 127 0" result="hardAlpha"/>
<feMorphology radius="1" operator="dilate" in="SourceAlpha" result="effect1_dropShadow_214_3059"/>
<feOffset dy="4"/>
<feGaussianBlur stdDeviation="10"/>
<feComposite in2="hardAlpha" operator="out"/>
<feColorMatrix type="matrix" values="0 0 0 0 0 0 0 0 0 0 0 0 0 0 0 0 0 0 0.25 0"/>
<feBlend mode="normal" in2="BackgroundImageFix" result="effect1_dropShadow_214_3059"/>
<feBlend mode="normal" in="SourceGraphic" in2="effect1_dropShadow_214_3059" result="shape"/>
</filter>
<filter id="filter1_d_214_3059" x="387.7" y="555.7" width="292.6" height="102.6" filterUnits="userSpaceOnUse" color-interpolation-filters="sRGB">
<feFlood flood-opacity="0" result="BackgroundImageFix"/>
<feColorMatrix in="SourceAlpha" type="matrix" values="0 0 0 0 0 0 0 0 0 0 0 0 0 0 0 0 0 0 127 0" result="hardAlpha"/>
<feMorphology radius="1" operator="dilate" in="SourceAlpha" result="effect1_dropShadow_214_3059"/>
<feOffset dy="4"/>
<feGaussianBlur stdDeviation="7.65"/>
<feComposite in2="hardAlpha" operator="out"/>
<feColorMatrix type="matrix" values="0 0 0 0 0 0 0 0 0 0 0 0 0 0 0 0 0 0 0.25 0"/>
<feBlend mode="normal" in2="BackgroundImageFix" result="effect1_dropShadow_214_3059"/>
<feBlend mode="normal" in="SourceGraphic" in2="effect1_dropShadow_214_3059" result="shape"/>
</filter>
<clipPath id="clip0_214_3059">
<rect width="1440" height="1024" fill="white" transform="translate(-206 -229)"/>
</clipPath>
</defs>
</svg>
