<svg width="38" height="38" viewBox="0 0 38 38" fill="none" xmlns="http://www.w3.org/2000/svg">
<rect width="38" height="38" stroke="black"/>
<path d="M10.2091 12.6182C10.2875 11.9126 10.3267 11.5598 10.3843 11.2566C11.0585 7.70845 14.0264 5.05201 17.6274 4.77378C17.9351 4.75 18.29 4.75 19 4.75V4.75C19.71 4.75 20.0649 4.75 20.3726 4.77378C23.9736 5.05201 26.9415 7.70845 27.6157 11.2566C27.6733 11.5598 27.7125 11.9126 27.7909 12.6182L28.1896 16.2064C28.3066 17.2597 28.3652 17.7864 28.4908 18.296C28.5979 18.7304 28.7412 19.1551 28.9193 19.5655C29.1282 20.0471 29.4009 20.5015 29.9461 21.4102L31.4326 23.8877C32.2384 25.2306 32.6412 25.9021 32.354 26.4094C32.0668 26.9167 31.2837 26.9167 29.7176 26.9167H8.28238C6.71627 26.9167 5.93322 26.9167 5.64599 26.4094C5.35876 25.9021 5.76164 25.2306 6.5674 23.8877L8.05387 21.4102C8.59913 20.5015 8.87175 20.0471 9.08069 19.5655C9.25878 19.1551 9.40212 18.7304 9.50921 18.296C9.63485 17.7864 9.69336 17.2597 9.8104 16.2064L10.2091 12.6182Z" stroke="#33363F" stroke-width="3"/>
<path d="M12.6663 26.9167C12.6663 27.7484 12.8302 28.5719 13.1484 29.3403C13.4667 30.1087 13.9332 30.8069 14.5213 31.395C15.1094 31.9831 15.8076 32.4496 16.576 32.7679C17.3444 33.0862 18.168 33.25 18.9997 33.25C19.8314 33.25 20.6549 33.0862 21.4233 32.7679C22.1917 32.4496 22.8899 31.9831 23.478 31.395C24.0661 30.8069 24.5326 30.1087 24.8509 29.3403C25.1692 28.5719 25.333 27.7484 25.333 26.9167" stroke="#33363F" stroke-width="2" stroke-linecap="round"/>
</svg>
