<svg width="100" height="100" viewBox="0 0 100 100" fill="none" xmlns="http://www.w3.org/2000/svg">
<path fill-rule="evenodd" clip-rule="evenodd" d="M1.78564 50.0001C1.78564 43.6685 3.03274 37.3989 5.45574 31.5492C7.87873 25.6996 11.4302 20.3845 15.9073 15.9074C20.3844 11.4303 25.6995 7.87886 31.5491 5.45586C37.3987 3.03287 43.6683 1.78577 49.9999 1.78577C56.3315 1.78577 62.6011 3.03287 68.4507 5.45586C74.3004 7.87886 79.6155 11.4303 84.0926 15.9074C88.5697 20.3845 92.1211 25.6996 94.5441 31.5492C96.9671 37.3989 98.2142 43.6685 98.2142 50.0001C98.2142 62.7873 93.1345 75.0508 84.0926 84.0927C75.0507 93.1346 62.7872 98.2143 49.9999 98.2143C37.2127 98.2143 24.9492 93.1346 15.9073 84.0927C6.86535 75.0508 1.78564 62.7873 1.78564 50.0001ZM66.0856 79.0286L73.5499 22.3715L15.2285 50.4786L32.4928 56.7358L51.6785 41.9072C52.05 41.6206 52.4742 41.41 52.9271 41.2874C53.3799 41.1648 53.8525 41.1326 54.3177 41.1927C54.783 41.2527 55.2319 41.4038 55.6388 41.6373C56.0457 41.8708 56.4027 42.1822 56.6892 42.5536C56.9758 42.9251 57.1864 43.3493 57.309 43.8022C57.4316 44.255 57.4638 44.7276 57.4038 45.1929C57.3437 45.6581 57.1926 46.1071 56.9591 46.514C56.7256 46.9209 56.4142 47.2778 56.0428 47.5643L40.1285 59.8572V79.3286L52.1642 67.8715L66.0856 79.0215V79.0286Z" fill="black"/>
</svg>
