<svg width="38" height="38" viewBox="0 0 38 38" fill="none" xmlns="http://www.w3.org/2000/svg">
<path d="M19 10C19 9.76194 19 9.64291 19.0779 9.56898C19.1559 9.49504 19.2705 9.50108 19.4998 9.51315C20.9937 9.59185 22.4504 10.0224 23.75 10.7728C25.1942 11.6066 26.3934 12.8058 27.2272 14.25C28.061 15.6942 28.5 17.3324 28.5 19C28.5 20.6676 28.061 22.3058 27.2272 23.75C26.3934 25.1942 25.1942 26.3934 23.75 27.2272C22.3058 28.061 20.6676 28.5 19 28.5C17.3324 28.5 15.6942 28.061 14.25 27.2272C12.9504 26.4769 11.8491 25.4306 11.034 24.1762C10.9089 23.9837 10.8464 23.8875 10.8715 23.783C10.8965 23.6785 10.9996 23.619 11.2058 23.5L18.75 19.1443C18.872 19.0739 18.933 19.0387 18.9665 18.9807C19 18.9226 19 18.8522 19 18.7113V10Z" fill="#33363F"/>
<circle cx="18.9997" cy="19" r="13.6667" stroke="#33363F" stroke-width="2"/>
</svg>
