<svg width="34" height="37" viewBox="0 0 34 37" fill="none" xmlns="http://www.w3.org/2000/svg">
<path d="M23.6667 8.66667V7.33333C23.6667 5.46649 23.6667 4.53307 23.3034 3.82003C22.9838 3.19282 22.4738 2.68289 21.8466 2.36331C21.1336 2 20.2002 2 18.3333 2H15.6667C13.7998 2 12.8664 2 12.1534 2.36331C11.5262 2.68289 11.0162 3.19282 10.6966 3.82003C10.3333 4.53307 10.3333 5.46649 10.3333 7.33333V8.66667M13.6667 17.8333V26.1667M20.3333 17.8333V26.1667M2 8.66667H32M28.6667 8.66667V27.3333C28.6667 30.1336 28.6667 31.5337 28.1217 32.6033C27.6423 33.5441 26.8774 34.309 25.9366 34.7884C24.8671 35.3333 23.4669 35.3333 20.6667 35.3333H13.3333C10.5331 35.3333 9.13294 35.3333 8.06338 34.7884C7.12257 34.309 6.35767 33.5441 5.8783 32.6033C5.33333 31.5337 5.33333 30.1336 5.33333 27.3333V8.66667" stroke="#838383" stroke-width="3.33333" stroke-linecap="round" stroke-linejoin="round"/>
</svg>
