<svg width="100" height="100" viewBox="0 0 100 100" fill="none" xmlns="http://www.w3.org/2000/svg">
<g clip-path="url(#clip0_90_89)">
<path fill-rule="evenodd" clip-rule="evenodd" d="M100 50C100 77.6143 77.6143 100 50 100C22.3858 100 0 77.6143 0 50C0 22.3858 22.3858 0 50 0C77.6143 0 100 22.3858 100 50ZM50 23.2143C52.9586 23.2143 55.3571 25.6128 55.3571 28.5714V44.6429H71.4286C74.3871 44.6429 76.7857 47.0414 76.7857 50C76.7857 52.9586 74.3871 55.3571 71.4286 55.3571H55.3571V71.4286C55.3571 74.3871 52.9586 76.7857 50 76.7857C47.0414 76.7857 44.6429 74.3871 44.6429 71.4286V55.3571H28.5714C25.6128 55.3571 23.2143 52.9586 23.2143 50C23.2143 47.0414 25.6128 44.6429 28.5714 44.6429H44.6429V28.5714C44.6429 25.6128 47.0414 23.2143 50 23.2143Z" fill="black"/>
</g>
<defs>
<clipPath id="clip0_90_89">
<rect width="100" height="100" fill="white"/>
</clipPath>
</defs>
</svg>
