<svg width="26" height="26" viewBox="0 0 26 26" fill="none" xmlns="http://www.w3.org/2000/svg">
<path fill-rule="evenodd" clip-rule="evenodd" d="M4.12868 6.29543C3.25 7.17411 3.25 8.58832 3.25 11.4168V14.5834C3.25 17.4118 3.25 18.8261 4.12868 19.7047C5.00736 20.5834 6.42157 20.5834 9.25 20.5834H16.75C19.5784 20.5834 20.9926 20.5834 21.8713 19.7047C22.75 18.8261 22.75 17.4118 22.75 14.5834V11.4167C22.75 8.58832 22.75 7.17411 21.8713 6.29543C20.9926 5.41675 19.5784 5.41675 16.75 5.41675H9.25C6.42157 5.41675 5.00736 5.41675 4.12868 6.29543ZM7.0547 8.91803C6.59517 8.61168 5.9743 8.73585 5.66795 9.19538C5.3616 9.65491 5.48577 10.2758 5.9453 10.5821L11.8906 14.5457C12.5624 14.9935 13.4376 14.9935 14.1094 14.5457L20.0547 10.5821C20.5142 10.2758 20.6384 9.65491 20.3321 9.19538C20.0257 8.73585 19.4048 8.61168 18.9453 8.91803L13 12.8816L7.0547 8.91803Z" fill="#222222"/>
</svg>
