<svg width="38" height="38" viewBox="0 0 38 38" fill="none" xmlns="http://www.w3.org/2000/svg">
<circle cx="19.0003" cy="12.6667" r="5.33333" stroke="#33363F" stroke-width="2" stroke-linecap="round"/>
<path d="M23.6694 12.375C24.1667 11.5137 24.9857 10.8852 25.9464 10.6278C26.9071 10.3704 27.9307 10.5051 28.792 11.0024C29.6533 11.4997 30.2818 12.3188 30.5392 13.2794C30.7966 14.2401 30.6619 15.2637 30.1646 16.125C29.6673 16.9863 28.8482 17.6148 27.8876 17.8722C26.9269 18.1296 25.9033 17.9949 25.042 17.4976C24.1807 17.0003 23.5522 16.1812 23.2948 15.2206C23.0374 14.2599 23.1721 13.2363 23.6694 12.375L23.6694 12.375Z" stroke="#33363F" stroke-width="2"/>
<path d="M7.83541 12.375C8.33269 11.5137 9.15176 10.8852 10.1124 10.6278C11.0731 10.3704 12.0967 10.5051 12.958 11.0024C13.8193 11.4997 14.4478 12.3188 14.7052 13.2794C14.9626 14.2401 14.8279 15.2637 14.3306 16.125C13.8333 16.9863 13.0143 17.6148 12.0536 17.8722C11.0929 18.1296 10.0693 17.9949 9.20801 17.4976C8.34669 17.0003 7.7182 16.1812 7.46079 15.2206C7.20337 14.2599 7.33813 13.2363 7.83541 12.375L7.83541 12.375Z" stroke="#33363F" stroke-width="2"/>
<path d="M26.7296 28.5L25.7493 28.6974L25.9109 29.5H26.7296V28.5ZM33.0086 27.3967L32.0464 27.6692V27.6692L33.0086 27.3967ZM23.4033 23.2917L22.7985 22.4953L21.6419 23.3738L22.8752 24.1408L23.4033 23.2917ZM32.1176 27.5H26.7296V29.5H32.1176V27.5ZM32.0464 27.6692C32.0427 27.6562 32.0395 27.6297 32.0466 27.5974C32.0534 27.567 32.0665 27.5438 32.079 27.5286C32.1037 27.4988 32.1243 27.5 32.1176 27.5V29.5C33.2861 29.5 34.3409 28.4309 33.9707 27.1241L32.0464 27.6692ZM26.917 23.1667C28.6286 23.1667 29.7601 23.8684 30.5451 24.7614C31.3568 25.6849 31.8095 26.833 32.0464 27.6692L33.9707 27.1241C33.6936 26.1458 33.1353 24.6788 32.0472 23.441C30.9323 22.1726 29.2751 21.1667 26.917 21.1667V23.1667ZM24.0082 24.088C24.7168 23.5498 25.6507 23.1667 26.917 23.1667V21.1667C25.2068 21.1667 23.8494 21.6971 22.7985 22.4953L24.0082 24.088ZM22.8752 24.1408C24.7216 25.2892 25.4607 27.2645 25.7493 28.6974L27.7099 28.3026C27.3776 26.6524 26.4671 24.0195 23.9314 22.4425L22.8752 24.1408Z" fill="#33363F"/>
<path d="M14.5971 23.2916L15.1252 24.1408L16.3585 23.3738L15.2019 22.4953L14.5971 23.2916ZM4.99185 27.3967L4.0297 27.1241L4.99185 27.3967ZM11.2708 28.5V29.5H12.0894L12.2511 28.6974L11.2708 28.5ZM11.0834 23.1667C12.3497 23.1667 13.2836 23.5498 13.9922 24.088L15.2019 22.4953C14.151 21.6971 12.7936 21.1667 11.0834 21.1667V23.1667ZM5.95399 27.6692C6.19086 26.833 6.64358 25.6849 7.45537 24.7614C8.24035 23.8684 9.37187 23.1667 11.0834 23.1667V21.1667C8.72537 21.1667 7.06811 22.1726 5.95321 23.441C4.86511 24.6788 4.30683 26.1458 4.0297 27.1241L5.95399 27.6692ZM5.88283 27.5C5.87613 27.5 5.89673 27.4988 5.92136 27.5286C5.9339 27.5438 5.94703 27.567 5.95376 27.5974C5.9609 27.6297 5.95767 27.6562 5.95399 27.6692L4.0297 27.1241C3.65953 28.4309 4.71426 29.5 5.88283 29.5V27.5ZM11.2708 27.5H5.88283V29.5H11.2708V27.5ZM12.2511 28.6974C12.5397 27.2644 13.2788 25.2891 15.1252 24.1408L14.069 22.4425C11.5332 24.0195 10.6228 26.6524 10.2905 28.3026L12.2511 28.6974Z" fill="#33363F"/>
<path d="M18.9997 22.1667C25.1615 22.1667 26.5273 26.9626 26.8301 29.0888C26.908 29.6355 26.4686 30.0833 25.9163 30.0833H12.083C11.5307 30.0833 11.0914 29.6355 11.1692 29.0888C11.472 26.9626 12.8379 22.1667 18.9997 22.1667Z" stroke="#33363F" stroke-width="2" stroke-linecap="round"/>
</svg>
