<svg width="35" height="35" viewBox="0 0 35 35" fill="none" xmlns="http://www.w3.org/2000/svg">
<path d="M23.1499 19.6153H23.1353M22.2611 19.9252C22.2338 19.9466 22.2074 19.9692 22.1816 19.993M24.7541 7.10646C23.331 7.10636 21.9421 7.54217 20.7741 8.35525C19.6062 9.16832 18.7154 10.3196 18.2215 11.6543H9.25419L7.13086 13.9234V14.2158L8.99534 16.3676H9.18857L10.3684 15.2228L11.7159 16.3676H11.9105L13.0903 15.2228L14.7412 16.6257H15.4266C16.2889 15.5276 17.4613 14.714 18.7918 14.2905C20.1222 13.867 21.5493 13.8532 22.8877 14.2509C24.2261 14.6486 25.414 15.4394 26.2974 16.5207C27.1807 17.6019 27.7187 18.9238 27.8414 20.3146C29.25 19.6179 30.3817 18.4652 31.0524 17.044C31.7231 15.6228 31.8934 14.0165 31.5358 12.4862C31.1781 10.9559 30.3133 9.59153 29.0821 8.61485C27.851 7.63817 26.3256 7.10658 24.7541 7.10646ZM26.9999 12.7582C27.2832 12.7582 27.56 12.8422 27.7955 12.9996C28.0311 13.1569 28.2146 13.3806 28.323 13.6423C28.4314 13.904 28.4597 14.1919 28.4045 14.4697C28.3492 14.7475 28.2128 15.0027 28.0126 15.203C27.8123 15.4032 27.5571 15.5396 27.2793 15.5949C27.0015 15.6501 26.7136 15.6218 26.4519 15.5134C26.1902 15.405 25.9665 15.2214 25.8092 14.9859C25.6518 14.7504 25.5678 14.4736 25.5678 14.1903C25.5677 14.0023 25.6047 13.8161 25.6766 13.6423C25.7485 13.4686 25.8539 13.3107 25.9868 13.1777C26.1197 13.0447 26.2776 12.9392 26.4513 12.8673C26.625 12.7953 26.8119 12.7582 26.9999 12.7582ZM21.8921 20.3642C21.8836 20.3793 21.8753 20.3946 21.8673 20.4101L21.8921 20.3642Z" stroke="black" stroke-linecap="round" stroke-linejoin="round"/>
<path d="M22.8798 14.2501L22.9389 14.2676M17.4723 14.8684C17.3712 14.9253 17.2715 14.9849 17.1733 15.0471M16.1671 15.8236C16.1102 15.8761 16.0543 15.9296 15.9994 15.9841M26.6401 16.9779L26.6984 17.0654M26.888 17.3644L26.9456 17.4635M27.0032 17.5656L27.0368 17.6261M27.3948 18.4042L27.4218 18.4742M27.6143 19.0633C27.6041 19.0259 27.5934 18.9887 27.5822 18.9518L27.6143 19.0633ZM27.6143 19.0633L27.6434 19.1734M27.747 19.6321L27.7667 19.7415M27.7667 19.7415C27.7735 19.7789 27.7798 19.8166 27.7856 19.8545M27.7667 19.7415L27.7856 19.8545M27.7856 19.8545L27.7995 19.9478M24.1077 19.9835C24.1208 19.9952 24.1337 20.0074 24.1464 20.02M24.2856 20.176C24.307 20.2038 24.3274 20.2322 24.3469 20.2614M24.3746 20.3058C24.3931 20.336 24.4101 20.3666 24.4256 20.3977M24.5066 20.5909L24.5175 20.6252M24.5255 20.6522C24.5343 20.6823 24.542 20.7127 24.5489 20.7433C24.5561 20.7774 24.5622 20.8114 24.5671 20.8454M15.4277 16.6257C14.9798 17.1955 14.6236 17.8317 14.3719 18.5114H5.40385L3.28125 20.7798V21.0729L5.14573 23.224H5.33896L6.51875 22.0792L7.86625 23.224H8.06094L9.24073 22.0792L10.8916 23.4821H14.4244C15.0192 24.9905 16.1217 26.2441 17.5418 27.0268C18.9618 27.8094 20.6104 28.0721 22.2034 27.7696C23.7964 27.467 25.2339 26.6182 26.2681 25.3693C27.3023 24.1205 27.8684 22.55 27.8688 20.9285C27.8688 20.7234 27.8595 20.5188 27.841 20.3146C26.8811 20.7894 25.8247 21.0364 24.7538 21.0365C24.6959 21.0365 24.6383 21.0357 24.5809 21.0343C24.5809 20.9886 24.5785 20.9434 24.5736 20.8986C24.592 21.091 24.5713 21.285 24.5127 21.4691C24.4541 21.6532 24.3589 21.8235 24.2327 21.9698C24.1065 22.1161 23.9521 22.2354 23.7786 22.3204C23.6051 22.4054 23.4162 22.4544 23.2232 22.4644C23.0303 22.4745 22.8373 22.4453 22.656 22.3788C22.4746 22.3123 22.3086 22.2098 22.1679 22.0774C22.0272 21.945 21.9147 21.7855 21.8373 21.6084C21.7599 21.4314 21.7192 21.2406 21.7175 21.0474C21.7175 20.8265 21.7687 20.6086 21.867 20.4108C20.224 19.6627 18.9357 18.3059 18.2736 16.6265L15.4277 16.6257ZM27.6449 19.1764C27.6532 19.2075 27.6609 19.2388 27.6682 19.2704L27.6449 19.1764ZM27.817 20.0842C27.8218 20.1187 27.826 20.1532 27.8294 20.1877L27.817 20.0842Z" stroke="black" stroke-linecap="round" stroke-linejoin="round"/>
<path opacity="0.75" d="M20.9038 13.9635C19.8491 13.9636 18.8081 14.2032 17.8595 14.6642C16.9109 15.1253 16.0794 15.7957 15.4277 16.625H18.2737C18.9354 18.305 20.2238 19.6624 21.867 20.4108C21.8826 20.3792 21.8996 20.3484 21.918 20.3182C21.9356 20.2879 21.9543 20.2582 21.9742 20.2293C22.0042 20.1862 22.0366 20.1448 22.0712 20.1053C22.0824 20.0922 22.094 20.0793 22.1062 20.0667L22.1426 20.0288C22.1925 19.9797 22.2459 19.9344 22.3023 19.8931L22.3453 19.8625C22.3745 19.8431 22.4042 19.8246 22.4343 19.8071L22.4795 19.7816L22.481 19.7808C22.4955 19.7728 22.5116 19.7655 22.5269 19.7582C22.5743 19.7352 22.623 19.7147 22.6727 19.697C22.7056 19.6855 22.739 19.6753 22.7726 19.6664L22.8237 19.6532C22.8573 19.6449 22.8914 19.6383 22.9258 19.6335C22.9431 19.6304 22.9607 19.628 22.9783 19.6263H22.979L23.022 19.6219L23.0395 19.6197C23.0715 19.6171 23.1036 19.6157 23.1358 19.6153L23.1496 19.6146C23.1846 19.6146 23.2196 19.616 23.2546 19.619L23.3071 19.6241C23.3416 19.6275 23.3761 19.6323 23.4106 19.6387C23.5831 19.6708 23.7482 19.7343 23.8977 19.826C23.9724 19.8718 24.0427 19.9243 24.1077 19.9828C24.134 20.0062 24.1593 20.0305 24.1836 20.0557L24.2186 20.0951C24.2419 20.1209 24.2643 20.1476 24.2856 20.1753C24.307 20.203 24.3272 20.2317 24.3462 20.2614L24.3746 20.3051V20.3058C24.3926 20.336 24.4096 20.3666 24.4257 20.3977C24.4413 20.4288 24.4559 20.4604 24.4694 20.4925C24.5169 20.6055 24.5498 20.7241 24.5671 20.8454V20.8462L24.5737 20.8972V20.8987C24.578 20.9431 24.581 20.9883 24.581 21.0343C24.6388 21.0357 24.6964 21.0365 24.7538 21.0365C25.8249 21.0365 26.8816 20.7894 27.8418 20.3146C27.6883 18.5804 26.891 16.9666 25.6068 15.791C24.3226 14.6155 22.6447 13.9635 20.9038 13.9635V13.9635Z" stroke="black" stroke-linecap="round" stroke-linejoin="round"/>
<path opacity="0.75" d="M20.9038 13.9635C19.8491 13.9636 18.8081 14.2032 17.8595 14.6642C16.9109 15.1253 16.0794 15.7957 15.4277 16.625H18.2737C18.9354 18.305 20.2238 19.6624 21.867 20.4108C21.8826 20.3792 21.8996 20.3484 21.918 20.3182C21.9356 20.2879 21.9543 20.2582 21.9742 20.2293C22.0042 20.1862 22.0366 20.1448 22.0712 20.1053C22.0824 20.0922 22.094 20.0793 22.1062 20.0667L22.1426 20.0288C22.1925 19.9797 22.2459 19.9344 22.3023 19.8931L22.3453 19.8625C22.3745 19.8431 22.4042 19.8246 22.4343 19.8071L22.4795 19.7816L22.481 19.7808C22.4955 19.7728 22.5116 19.7655 22.5269 19.7582C22.5743 19.7352 22.623 19.7147 22.6727 19.697C22.7056 19.6855 22.739 19.6753 22.7726 19.6664L22.8237 19.6532C22.8573 19.6449 22.8914 19.6383 22.9258 19.6335C22.9431 19.6304 22.9607 19.628 22.9783 19.6263H22.979L23.022 19.6219L23.0395 19.6197C23.0715 19.6171 23.1036 19.6157 23.1358 19.6153L23.1496 19.6146C23.1846 19.6146 23.2196 19.616 23.2546 19.619L23.3071 19.6241C23.3416 19.6275 23.3761 19.6323 23.4106 19.6387C23.5831 19.6708 23.7482 19.7343 23.8977 19.826C23.9724 19.8718 24.0427 19.9243 24.1077 19.9828C24.134 20.0062 24.1593 20.0305 24.1836 20.0557L24.2186 20.0951C24.2419 20.1209 24.2643 20.1476 24.2856 20.1753C24.307 20.203 24.3272 20.2317 24.3462 20.2614L24.3746 20.3051V20.3058C24.3926 20.336 24.4096 20.3666 24.4257 20.3977C24.4413 20.4288 24.4559 20.4604 24.4694 20.4925C24.5169 20.6055 24.5498 20.7241 24.5671 20.8454V20.8462L24.5737 20.8972V20.8987C24.578 20.9431 24.581 20.9883 24.581 21.0343C24.6388 21.0357 24.6964 21.0365 24.7538 21.0365C25.8249 21.0365 26.8816 20.7894 27.8418 20.3146C27.6883 18.5804 26.891 16.9666 25.6068 15.791C24.3226 14.6155 22.6447 13.9635 20.9038 13.9635V13.9635Z" stroke="black" stroke-linecap="round" stroke-linejoin="round"/>
</svg>
