<svg width="41" height="39" viewBox="0 0 41 39" fill="none" xmlns="http://www.w3.org/2000/svg">
<path d="M37.2228 2.405L38.2307 3.36375C39.6196 4.6865 39.4095 7.03138 37.7575 8.60113L16.9722 28.3725L10.238 30.7158C9.39235 31.0115 8.56894 30.628 8.40152 29.8626C8.34494 29.585 8.37158 29.2978 8.4784 29.0339L10.9896 22.5729L31.7169 2.85512C33.3688 1.28537 35.8339 1.08388 37.2228 2.40663V2.405ZM16.0651 4.37125C16.2894 4.37125 16.5116 4.41328 16.7189 4.49495C16.9261 4.57661 17.1144 4.69631 17.2731 4.8472C17.4317 4.9981 17.5575 5.17724 17.6434 5.37439C17.7293 5.57154 17.7734 5.78285 17.7734 5.99625C17.7734 6.20965 17.7293 6.42096 17.6434 6.61811C17.5575 6.81526 17.4317 6.9944 17.2731 7.1453C17.1144 7.29619 16.9261 7.41589 16.7189 7.49755C16.5116 7.57922 16.2894 7.62125 16.0651 7.62125H9.23177C8.32561 7.62125 7.45657 7.96366 6.81582 8.57315C6.17507 9.18265 5.8151 10.0093 5.8151 10.8713V30.3713C5.8151 31.2332 6.17507 32.0599 6.81582 32.6693C7.45657 33.2788 8.32561 33.6213 9.23177 33.6213H29.7318C30.6379 33.6213 31.507 33.2788 32.1477 32.6693C32.7885 32.0599 33.1484 31.2332 33.1484 30.3713V23.8713C33.1484 23.4403 33.3284 23.0269 33.6488 22.7222C33.9692 22.4175 34.4037 22.2463 34.8568 22.2463C35.3098 22.2463 35.7444 22.4175 36.0647 22.7222C36.3851 23.0269 36.5651 23.4403 36.5651 23.8713V30.3713C36.5651 32.0952 35.8452 33.7485 34.5637 34.9674C33.2822 36.1864 31.5441 36.8713 29.7318 36.8713H9.23177C7.41946 36.8713 5.68137 36.1864 4.39987 34.9674C3.11838 33.7485 2.39844 32.0952 2.39844 30.3713V10.8713C2.39844 9.14734 3.11838 7.49404 4.39987 6.27506C5.68137 5.05607 7.41946 4.37125 9.23177 4.37125H16.0651Z" fill="#838383"/>
</svg>
