<svg width="22" height="22" viewBox="0 0 22 22" fill="none" xmlns="http://www.w3.org/2000/svg">
<path d="M20.4435 5.81135L16.4188 12.2037C16.1198 12.6781 15.6876 13.054 15.1645 13.256C14.1646 13.6418 12.4391 14.2348 11.2715 14.2348C11.2715 14.2348 11.3746 12.9317 10.0996 11.6567C8.82461 10.3817 7.52148 10.4848 7.52148 10.4848C7.52148 9.29416 8.16227 7.55697 8.56727 6.57775C8.77023 6.08744 9.12883 5.68197 9.57602 5.3965L15.959 1.31932C16.1043 1.22603 16.2576 1.14588 16.4249 1.10322C16.9912 0.959316 18.4302 0.769003 19.7118 2.0501C21.0009 3.33916 20.797 4.79791 20.6516 5.36041C20.6058 5.52052 20.5356 5.67261 20.4435 5.81135Z" stroke="black" stroke-width="1.5" stroke-linecap="round" stroke-linejoin="round"/>
<path d="M7.5213 10.4849C1.81755 10.4849 1.61411 14.0867 1.46036 16.8069C1.41677 17.5724 1.37739 18.2675 1.22083 18.7935C1.19973 18.8633 1.17677 18.9336 1.15333 19.0039C1.0488 19.3227 0.942391 19.6466 1.03614 19.963C1.20255 20.5255 1.64645 20.7974 2.43208 20.7974C7.76692 20.7974 11.2427 19.8674 11.2713 14.0727" stroke="black" stroke-width="1.5" stroke-linecap="round" stroke-linejoin="round"/>
<path d="M15.9413 12.7743C15.8639 11.887 15.4693 10.0002 13.6125 8.14352C11.8083 6.3393 9.97598 5.91555 9.05957 5.82227" stroke="black" stroke-width="1.5" stroke-linecap="round" stroke-linejoin="round"/>
</svg>
