<svg width="28" height="28" viewBox="0 0 28 28" fill="none" xmlns="http://www.w3.org/2000/svg">
<path d="M23 11H5C3.89544 11 3 11.8954 3 13V25C3 26.1046 3.89544 27 5 27H23C24.1046 27 25 26.1046 25 25V13C25 11.8954 24.1046 11 23 11Z" stroke="black" stroke-linecap="round" stroke-linejoin="round"/>
<path d="M21 11V8C21 6.14348 20.2626 4.363 18.9497 3.05026C17.637 1.7375 15.8565 1 14 1C12.1435 1 10.363 1.7375 9.05026 3.05026C7.7375 4.363 7 6.14348 7 8V11" stroke="black" stroke-linecap="round" stroke-linejoin="round"/>
<path d="M14 20C14.5523 20 15 19.5523 15 19C15 18.4477 14.5523 18 14 18C13.4477 18 13 18.4477 13 19C13 19.5523 13.4477 20 14 20Z" stroke="black" stroke-linecap="round" stroke-linejoin="round"/>
</svg>
