<svg width="110" height="103" viewBox="0 0 110 103" fill="none" xmlns="http://www.w3.org/2000/svg">
<path d="M104.107 22.1697L60.8929 1.32724C57.2786 -0.442412 52.7214 -0.442412 49.1072 1.32724L5.89286 22.1697C2.27857 23.9394 0 27.151 0 30.6903V72.3097C0 75.849 2.27857 79.0606 5.89286 80.8302L49.1072 101.673C52.7214 103.442 57.2786 103.442 60.8929 101.673L104.107 80.8302C107.721 79.0606 110 75.849 110 72.3097V30.6903C110 27.151 107.721 23.9394 104.107 22.1697ZM15.7143 70.409V40.1284L47.1429 55.3342V85.5493L15.7143 70.409ZM55 43.9954L23.5714 28.7895L55 13.6492L86.4286 28.7895L55 43.9954ZM62.8571 85.5493V55.3342L94.2857 40.1284V70.409L62.8571 85.5493Z" fill="white"/>
</svg>
