<svg width="110" height="105" viewBox="0 0 110 105" fill="none" xmlns="http://www.w3.org/2000/svg">
<path fill-rule="evenodd" clip-rule="evenodd" d="M54.9999 17.4603C44.8747 17.4603 36.6666 25.2776 36.6666 34.9206C36.6666 44.5637 44.8747 52.3809 54.9999 52.3809C65.1252 52.3809 73.3333 44.5637 73.3333 34.9206C73.3333 25.2776 65.1252 17.4603 54.9999 17.4603ZM71.6878 55.7393C78.2603 50.9535 82.4999 43.4086 82.4999 34.9206C82.4999 20.456 70.1878 8.73016 54.9999 8.73016C39.8121 8.73016 27.4999 20.456 27.4999 34.9206C27.4999 43.4086 31.7396 50.9535 38.3121 55.7393C33.7036 57.6808 29.4639 60.4283 25.8318 63.8875C23.0271 66.5586 20.6678 69.5751 18.7997 72.8318C15.3525 78.8417 16.7583 84.9694 20.6405 89.3024C24.3778 93.4738 30.3646 96.0317 36.6666 96.0317H73.3333C79.6353 96.0317 85.6221 93.4738 89.3594 89.3024C93.2415 84.9694 94.6474 78.8417 91.2001 72.8318C89.3321 69.5751 86.9728 66.5586 84.1681 63.8875C80.536 60.4283 76.2962 57.6808 71.6878 55.7393ZM54.9999 61.1111C46.4909 61.1111 38.3304 64.3303 32.3136 70.0606C30.1319 72.1384 28.2971 74.4843 26.8443 77.0171C25.4374 79.47 25.8913 81.7133 27.6136 83.6357C29.4809 85.7198 32.8434 87.3016 36.6666 87.3016H73.3333C77.1565 87.3016 80.519 85.7198 82.3862 83.6357C84.1086 81.7133 84.5625 79.47 83.1556 77.0171C81.7027 74.4843 79.868 72.1384 77.6863 70.0606C71.6695 64.3303 63.509 61.1111 54.9999 61.1111Z" fill="white"/>
</svg>
