<svg width="100" height="100" viewBox="0 0 100 100" fill="none" xmlns="http://www.w3.org/2000/svg">
<g clip-path="url(#clip0_90_99)">
<path fill-rule="evenodd" clip-rule="evenodd" d="M39.6928 4.92857L36.3856 13.4643L24.9999 19.9214L15.9285 18.5357C14.4156 18.3292 12.8756 18.5776 11.5043 19.2492C10.1331 19.9209 8.99278 20.9853 8.22848 22.3071L5.15705 27.6929C4.3684 29.034 4.00493 30.5827 4.1146 32.1347C4.22427 33.6866 4.80193 35.1688 5.77134 36.3857L11.5356 43.5357V56.4643L5.92848 63.6143C4.95907 64.8312 4.38141 66.3134 4.27174 67.8653C4.16207 69.4173 4.52555 70.966 5.3142 72.3071L8.38562 77.6929C9.14992 79.0147 10.2903 80.0791 11.6615 80.7508C13.0327 81.4224 14.5728 81.6708 16.0856 81.4643L25.1571 80.0786L36.3928 86.5357L39.6999 95.0786C40.2566 96.5227 41.2362 97.7651 42.5107 98.6433C43.7852 99.5214 45.2951 99.9942 46.8428 100H53.3071C54.858 99.9966 56.3717 99.524 57.649 98.6443C58.9264 97.7647 59.9078 96.5192 60.4642 95.0714L63.7713 86.5357L74.9999 80.0786L84.0713 81.4643C85.5842 81.6708 87.1243 81.4224 88.4955 80.7508C89.8667 80.0791 91.007 79.0147 91.7713 77.6929L94.8428 72.3071C95.6314 70.966 95.9949 69.4173 95.8852 67.8653C95.7756 66.3134 95.1979 64.8312 94.2285 63.6143L88.4642 56.4643V43.5357L94.0785 36.3857C95.0479 35.1688 95.6255 33.6866 95.7352 32.1347C95.8449 30.5827 95.4814 29.034 94.6928 27.6929L91.6213 22.3071C90.8578 20.9847 89.7175 19.9196 88.3461 19.2479C86.9747 18.5762 85.4343 18.3283 83.9213 18.5357L74.8499 19.9214L63.6142 13.4643L60.3071 4.92143C59.7491 3.47673 58.7682 2.23406 57.4925 1.35598C56.2168 0.477898 54.7057 0.00529743 53.1571 0L46.8428 0C45.2933 0.00585586 43.7816 0.479506 42.5058 1.35892C41.23 2.23834 40.2495 3.48253 39.6928 4.92857ZM49.9999 66.0714C52.1104 66.0714 54.2003 65.6557 56.1502 64.8481C58.1001 64.0404 59.8718 62.8566 61.3641 61.3642C62.8565 59.8718 64.0403 58.1001 64.848 56.1503C65.6556 54.2004 66.0713 52.1105 66.0713 50C66.0713 47.8895 65.6556 45.7996 64.848 43.8497C64.0403 41.8999 62.8565 40.1282 61.3641 38.6358C59.8718 37.1434 58.1001 35.9596 56.1502 35.1519C54.2003 34.3443 52.1104 33.9286 49.9999 33.9286C45.7375 33.9286 41.6497 35.6218 38.6357 38.6358C35.6217 41.6498 33.9285 45.7376 33.9285 50C33.9285 54.2624 35.6217 58.3502 38.6357 61.3642C41.6497 64.3782 45.7375 66.0714 49.9999 66.0714Z" fill="black"/>
</g>
<defs>
<clipPath id="clip0_90_99">
<rect width="100" height="100" fill="white"/>
</clipPath>
</defs>
</svg>
