<svg width="31" height="38" viewBox="0 0 31 38" fill="none" xmlns="http://www.w3.org/2000/svg">
<path d="M29.3393 8.17913L17.1607 0.48966C16.1421 -0.16322 14.8579 -0.16322 13.8393 0.48966L1.66071 8.17913C0.642143 8.83201 0 10.0169 0 11.3226V26.6774C0 27.9831 0.642143 29.168 1.66071 29.8209L13.8393 37.5103C14.8579 38.1632 16.1421 38.1632 17.1607 37.5103L29.3393 29.8209C30.3579 29.168 31 27.9831 31 26.6774V11.3226C31 10.0169 30.3579 8.83201 29.3393 8.17913ZM4.42857 25.9761V14.8046L13.2857 20.4146V31.5619L4.42857 25.9761ZM15.5 16.2313L6.64286 10.6214L15.5 5.03563L24.3571 10.6214L15.5 16.2313ZM17.7143 31.5619V20.4146L26.5714 14.8046V25.9761L17.7143 31.5619Z" fill="black"/>
</svg>
