<svg width="38" height="38" viewBox="0 0 38 38" fill="none" xmlns="http://www.w3.org/2000/svg">
<path d="M22.3471 4.96765H21.3471V5.01753L21.3521 5.06715L22.3471 4.96765ZM22.3471 4.96763H23.3471V4.91775L23.3421 4.86812L22.3471 4.96763ZM22.4556 6.05272L23.4506 5.95321V5.95321L22.4556 6.05272ZM23.2534 8.73201L22.8708 9.65588L22.8708 9.65589L23.2534 8.73201ZM25.7121 7.40162L26.3454 8.17558V8.17558L25.7121 7.40162ZM26.5561 6.71111L25.9229 5.93716L25.9229 5.93716L26.5561 6.71111ZM27.9396 5.91324L27.8898 6.912L27.9396 5.91324ZM29.2368 6.84481L29.9439 6.13771L29.2368 6.84481ZM31.1554 8.76347L30.4483 9.47057V9.47057L31.1554 8.76347ZM32.087 10.0607L33.0858 10.0109V10.0109L32.087 10.0607ZM31.2891 11.4442L32.0631 12.0774V12.0774L31.2891 11.4442ZM30.5986 12.2882L29.8246 11.6549L30.5986 12.2882ZM31.9475 15.5447L31.848 16.5397V16.5397L31.9475 15.5447ZM33.0327 15.6532L33.1322 14.6582L33.0327 15.6532ZM34.5751 16.0673L33.8337 16.7383L33.8337 16.7383L34.5751 16.0673ZM34.5751 21.9327L33.8337 21.2617L33.8337 21.2617L34.5751 21.9327ZM33.0327 22.3468V23.3468H33.0826L33.1322 23.3418L33.0327 22.3468ZM33.0327 22.3468V21.3468H32.9828L32.9332 21.3517L33.0327 22.3468ZM31.9481 22.4552L31.8486 21.4602L31.9481 22.4552ZM30.5992 25.7118L31.3732 25.0785L30.5992 25.7118ZM31.2892 26.5551L30.5153 27.1884V27.1884L31.2892 26.5551ZM31.1555 29.2358L31.8626 29.9429L31.1555 29.2358ZM29.2369 31.1545L28.5298 30.4474L28.5298 30.4474L29.2369 31.1545ZM27.9396 32.086L27.9895 33.0848H27.9895L27.9396 32.086ZM26.5562 31.2882L25.9229 32.0621H25.9229L26.5562 31.2882ZM25.7122 30.5977L26.3455 29.8237H26.3455L25.7122 30.5977ZM22.4557 31.9466L21.4606 31.8471V31.8471L22.4557 31.9466ZM22.3471 33.0323L21.3521 32.9328L21.3471 32.9825V33.0323H22.3471ZM22.3471 33.0323L23.3421 33.1319L23.3471 33.0822V33.0323H22.3471ZM21.933 34.5748L21.262 33.8333L21.262 33.8333L21.933 34.5748ZM16.0676 34.5748L16.7386 33.8333L16.7386 33.8333L16.0676 34.5748ZM15.6536 33.0323L14.6585 33.1318L15.6536 33.0323ZM15.545 31.9472L16.5401 31.8477L15.545 31.9472ZM14.7472 29.2679L15.1299 28.344H15.1299L14.7472 29.2679ZM12.2885 30.5983L12.9217 31.3722H12.9217L12.2885 30.5983ZM11.4444 31.2889L12.0777 32.0628L11.4444 31.2889ZM10.0609 32.0868L10.0111 33.0855H10.0111L10.0609 32.0868ZM8.76374 31.1552L8.01117 31.8137L8.03309 31.8388L8.05664 31.8623L8.76374 31.1552ZM8.76373 31.1552L9.51631 30.4967L9.49438 30.4716L9.47084 30.4481L8.76373 31.1552ZM6.84508 29.2365L7.55219 28.5294H7.55219L6.84508 29.2365ZM5.91351 27.9393L4.91475 27.9891L5.91351 27.9393ZM6.71138 26.5558L7.48534 27.1891H7.48534L6.71138 26.5558ZM7.40195 25.7118L6.62799 25.0786L7.40195 25.7118ZM8.73233 23.2531L9.65621 22.8704L9.65621 22.8704L8.73233 23.2531ZM6.05304 22.4553L6.15254 21.4602H6.15254L6.05304 22.4553ZM4.96799 22.3468L5.06749 21.3517L5.01786 21.3468H4.96799V22.3468ZM4.96797 22.3468L4.86846 23.3418L4.91809 23.3468H4.96797V22.3468ZM3.42554 21.9327L4.16699 21.2617H4.16699L3.42554 21.9327ZM3.16699 20.3567H2.16699H3.16699ZM3.16699 17.6433H4.16699H3.16699ZM3.42554 16.0673L2.68409 15.3963L2.68409 15.3963L3.42554 16.0673ZM4.96798 15.6532L4.86848 14.6582H4.86848L4.96798 15.6532ZM6.05363 15.5447L6.15314 16.5397L6.15314 16.5397L6.05363 15.5447ZM8.73292 14.7468L7.80905 14.3641L7.80904 14.3641L8.73292 14.7468ZM7.40254 12.2881L8.1765 11.6549H8.1765L7.40254 12.2881ZM6.71145 11.4434L5.93749 12.0767L5.93749 12.0767L6.71145 11.4434ZM11.4445 6.7104L12.0777 5.93644V5.93644L11.4445 6.7104ZM12.2886 7.401L12.9218 6.62704V6.62704L12.2886 7.401ZM15.5451 6.05209L14.5501 5.95259L15.5451 6.05209ZM15.6536 4.96765L14.6585 4.86815V4.86815L15.6536 4.96765ZM16.0676 3.4252L15.3966 2.68375L15.3966 2.68375L16.0676 3.4252ZM21.933 3.4252L21.262 4.16666V4.16666L21.933 3.4252ZM23.3471 4.96765V4.96763H21.3471V4.96765H23.3471ZM23.4506 5.95321L23.3421 4.86815L21.3521 5.06715L21.4606 6.15222L23.4506 5.95321ZM23.6361 7.80813C23.81 7.88015 23.7655 8.02176 23.6783 7.6751C23.5907 7.32701 23.5357 6.80379 23.4506 5.95321L21.4606 6.15222C21.5389 6.93518 21.6064 7.63711 21.7387 8.16304C21.8714 8.69039 22.1441 9.35487 22.8708 9.65588L23.6361 7.80813ZM25.0789 6.62767C24.4173 7.16897 24.0085 7.50006 23.7004 7.68427C23.3936 7.86773 23.4622 7.7361 23.6361 7.80813L22.8708 9.65589C23.5975 9.95689 24.2602 9.67986 24.7269 9.40078C25.1923 9.12245 25.7364 8.67386 26.3454 8.17558L25.0789 6.62767ZM25.9229 5.93716L25.0789 6.62767L26.3454 8.17558L27.1893 7.48507L25.9229 5.93716ZM27.9894 4.91448C27.5146 4.8908 27.1302 5.06128 26.8241 5.25216C26.5422 5.42794 26.2351 5.68173 25.9229 5.93716L27.1893 7.48507C27.5429 7.19579 27.7351 7.04105 27.8823 6.94926C28.0053 6.87259 27.9797 6.91648 27.8898 6.912L27.9894 4.91448ZM29.9439 6.13771C29.6587 5.85249 29.3783 5.56939 29.1153 5.36644C28.8297 5.14604 28.4641 4.93816 27.9894 4.91448L27.8898 6.912C27.7998 6.90751 27.7788 6.86129 27.8935 6.94982C28.0308 7.05579 28.2067 7.22889 28.5297 7.55192L29.9439 6.13771ZM31.8625 8.05636L29.9439 6.13771L28.5297 7.55192L30.4483 9.47057L31.8625 8.05636ZM33.0858 10.0109C33.0621 9.53611 32.8542 9.17054 32.6338 8.88493C32.4309 8.62193 32.1478 8.34158 31.8625 8.05636L30.4483 9.47057C30.7714 9.7936 30.9445 9.96945 31.0504 10.1068C31.139 10.2215 31.0927 10.2004 31.0883 10.1105L33.0858 10.0109ZM32.0631 12.0774C32.3185 11.7652 32.5723 11.4581 32.7481 11.1762C32.939 10.8701 33.1095 10.4856 33.0858 10.0109L31.0883 10.1105C31.0838 10.0206 31.1277 9.99499 31.051 10.118C30.9592 10.2652 30.8045 10.4573 30.5152 10.8109L32.0631 12.0774ZM31.3726 12.9214L32.0631 12.0774L30.5152 10.8109L29.8246 11.6549L31.3726 12.9214ZM30.1921 14.3642C30.2641 14.5381 30.1325 14.6067 30.316 14.2999C30.5002 13.9918 30.8313 13.583 31.3726 12.9214L29.8246 11.6549C29.3264 12.2639 28.8778 12.808 28.5994 13.2735C28.3204 13.7402 28.0433 14.4028 28.3443 15.1295L30.1921 14.3642ZM32.047 14.5497C31.1964 14.4646 30.6732 14.4096 30.3251 14.3221C29.9785 14.2348 30.1201 14.1903 30.1921 14.3642L28.3443 15.1295C28.6453 15.8562 29.3098 16.1289 29.8372 16.2616C30.3631 16.3939 31.065 16.4614 31.848 16.5397L32.047 14.5497ZM33.1322 14.6582L32.047 14.5497L31.848 16.5397L32.9332 16.6483L33.1322 14.6582ZM35.3166 15.3963C34.9976 15.0439 34.6052 14.8926 34.2538 14.8111C33.9302 14.736 33.5335 14.6983 33.1322 14.6582L32.9332 16.6483C33.3877 16.6937 33.6331 16.7202 33.802 16.7594C33.9432 16.7921 33.8941 16.8051 33.8337 16.7383L35.3166 15.3963ZM35.8337 17.6433C35.8337 17.2399 35.8356 16.8415 35.7931 16.512C35.747 16.1542 35.6355 15.7487 35.3166 15.3963L33.8337 16.7383C33.7732 16.6716 33.791 16.624 33.8095 16.7677C33.8317 16.9397 33.8337 17.1865 33.8337 17.6433H35.8337ZM35.8337 20.3567V17.6433H33.8337V20.3567H35.8337ZM35.3166 22.6037C35.6355 22.2512 35.747 21.8457 35.7931 21.4879C35.8356 21.1585 35.8337 20.76 35.8337 20.3567H33.8337C33.8337 20.8135 33.8317 21.0603 33.8095 21.2323C33.791 21.376 33.7732 21.3284 33.8337 21.2617L35.3166 22.6037ZM33.1322 23.3418C33.5335 23.3017 33.9302 23.2639 34.2538 23.1889C34.6052 23.1074 34.9976 22.9561 35.3166 22.6037L33.8337 21.2617C33.8941 21.1949 33.9432 21.2079 33.802 21.2406C33.6331 21.2798 33.3877 21.3063 32.9332 21.3517L33.1322 23.3418ZM33.0327 23.3468H33.0327V21.3468H33.0327V23.3468ZM32.0476 23.4502L33.1322 23.3418L32.9332 21.3517L31.8486 21.4602L32.0476 23.4502ZM30.1927 23.6357C30.1207 23.8096 29.9791 23.7651 30.3257 23.6779C30.6738 23.5903 31.197 23.5353 32.0476 23.4502L31.8486 21.4602C31.0656 21.5385 30.3637 21.606 29.8378 21.7383C29.3104 21.871 28.6459 22.1437 28.3449 22.8704L30.1927 23.6357ZM31.3732 25.0785C30.8319 24.4169 30.5008 24.0081 30.3165 23.7C30.1331 23.3932 30.2647 23.4619 30.1927 23.6357L28.3449 22.8704C28.0439 23.5971 28.321 24.2598 28.6 24.7265C28.8784 25.1919 29.327 25.736 29.8252 26.345L31.3732 25.0785ZM32.0632 25.9219L31.3732 25.0785L29.8252 26.345L30.5153 27.1884L32.0632 25.9219ZM33.0858 27.9884C33.1095 27.5137 32.9391 27.1292 32.7482 26.8231C32.5724 26.5412 32.3186 26.2341 32.0632 25.9219L30.5153 27.1884C30.8045 27.5419 30.9593 27.7341 31.0511 27.8813C31.1277 28.0043 31.0838 27.9787 31.0883 27.8888L33.0858 27.9884ZM31.8626 29.9429C32.1478 29.6577 32.4309 29.3773 32.6339 29.1143C32.8543 28.8287 33.0622 28.4632 33.0858 27.9884L31.0883 27.8888C31.0928 27.7989 31.139 27.7778 31.0505 27.8925C30.9445 28.0298 30.7714 28.2057 30.4484 28.5287L31.8626 29.9429ZM29.944 31.8616L31.8626 29.9429L30.4484 28.5287L28.5298 30.4474L29.944 31.8616ZM27.9895 33.0848C28.4642 33.0611 28.8298 32.8532 29.1154 32.6328C29.3784 32.4299 29.6588 32.1468 29.944 31.8616L28.5298 30.4474C28.2067 30.7704 28.0309 30.9435 27.8936 31.0495C27.7788 31.138 27.7999 31.0918 27.8898 31.0873L27.9895 33.0848ZM25.9229 32.0621C26.2351 32.3175 26.5422 32.5713 26.8241 32.7471C27.1303 32.938 27.5147 33.1085 27.9895 33.0848L27.8898 31.0873C27.9798 31.0828 28.0053 31.1267 27.8824 31.05C27.7352 30.9582 27.543 30.8035 27.1894 30.5142L25.9229 32.0621ZM25.079 31.3716L25.9229 32.0621L27.1894 30.5142L26.3455 29.8237L25.079 31.3716ZM23.6362 30.1912C23.4623 30.2632 23.3937 30.1315 23.7005 30.315C24.0085 30.4992 24.4174 30.8303 25.079 31.3716L26.3455 29.8237C25.7365 29.3254 25.1924 28.8768 24.7269 28.5985C24.2602 28.3194 23.5975 28.0424 22.8708 28.3434L23.6362 30.1912ZM23.4507 32.0461C23.5358 31.1955 23.5908 30.6723 23.6783 30.3242C23.7655 29.9775 23.8101 30.1191 23.6362 30.1912L22.8708 28.3434C22.1441 28.6444 21.8714 29.3089 21.7388 29.8362C21.6064 30.3622 21.5389 31.0641 21.4606 31.8471L23.4507 32.0461ZM23.3421 33.1318L23.4507 32.0461L21.4606 31.8471L21.3521 32.9328L23.3421 33.1318ZM23.3471 33.0323V33.0323H21.3471V33.0323H23.3471ZM22.604 35.3162C22.9565 34.9973 23.1078 34.6049 23.1892 34.2535C23.2643 33.9298 23.302 33.5332 23.3421 33.1319L21.3521 32.9328C21.3066 33.3874 21.2801 33.6327 21.2409 33.8017C21.2082 33.9429 21.1952 33.8937 21.262 33.8333L22.604 35.3162ZM20.357 35.8333C20.7604 35.8333 21.1588 35.8353 21.4883 35.7928C21.8461 35.7467 22.2516 35.6352 22.604 35.3162L21.262 33.8333C21.3288 33.7729 21.3764 33.7907 21.2326 33.8092C21.0606 33.8314 20.8139 33.8333 20.357 33.8333V35.8333ZM17.6436 35.8333H20.357V33.8333H17.6436V35.8333ZM15.3966 35.3162C15.7491 35.6352 16.1546 35.7467 16.5124 35.7928C16.8419 35.8353 17.2403 35.8333 17.6436 35.8333V33.8333C17.1868 33.8333 16.9401 33.8314 16.768 33.8092C16.6243 33.7907 16.6719 33.7729 16.7386 33.8333L15.3966 35.3162ZM14.6585 33.1318C14.6987 33.5332 14.7364 33.9298 14.8114 34.2534C14.8929 34.6049 15.0442 34.9973 15.3966 35.3162L16.7386 33.8333C16.8054 33.8937 16.7925 33.9429 16.7597 33.8017C16.7205 33.6327 16.6941 33.3874 16.6486 32.9328L14.6585 33.1318ZM14.55 32.0467L14.6585 33.1318L16.6486 32.9328L16.5401 31.8477L14.55 32.0467ZM14.3645 30.1918C14.1906 30.1197 14.2352 29.9781 14.3224 30.3248C14.41 30.6729 14.465 31.1961 14.55 32.0467L16.5401 31.8477C16.4618 31.0647 16.3943 30.3628 16.262 29.8369C16.1293 29.3095 15.8566 28.645 15.1299 28.344L14.3645 30.1918ZM12.9217 31.3722C13.5833 30.8309 13.9922 30.4998 14.3002 30.3156C14.607 30.1322 14.5384 30.2638 14.3645 30.1918L15.1299 28.344C14.4032 28.043 13.7405 28.32 13.2738 28.5991C12.8083 28.8775 12.2643 29.326 11.6553 29.8243L12.9217 31.3722ZM12.0777 32.0628L12.9217 31.3722L11.6553 29.8243L10.8112 30.5149L12.0777 32.0628ZM10.0111 33.0855C10.4859 33.1092 10.8703 32.9387 11.1765 32.7478C11.4583 32.5721 11.7655 32.3183 12.0777 32.0628L10.8112 30.5149C10.4576 30.8042 10.2654 30.959 10.1182 31.0507C9.99526 31.1274 10.0208 31.0835 10.1108 31.088L10.0111 33.0855ZM8.05664 31.8623C8.34186 32.1475 8.6222 32.4306 8.88521 32.6336C9.17081 32.854 9.53638 33.0618 10.0111 33.0855L10.1108 31.088C10.2007 31.0925 10.2218 31.1387 10.107 31.0502C9.96972 30.9442 9.79388 30.7711 9.47085 30.4481L8.05664 31.8623ZM8.01116 31.8137L8.01117 31.8137L9.51632 30.4967L9.51631 30.4967L8.01116 31.8137ZM6.13797 29.9436L8.05662 31.8623L9.47084 30.4481L7.55219 28.5294L6.13797 29.9436ZM4.91475 27.9891C4.93843 28.4639 5.14631 28.8295 5.3667 29.1151C5.56966 29.3781 5.85275 29.6584 6.13797 29.9436L7.55219 28.5294C7.22916 28.2064 7.05606 28.0305 6.95009 27.8932C6.86155 27.7785 6.90778 27.7996 6.91226 27.8895L4.91475 27.9891ZM5.93742 25.9226C5.682 26.2348 5.4282 26.5419 5.25243 26.8238C5.06154 27.1299 4.89107 27.5144 4.91475 27.9891L6.91226 27.8895C6.91675 27.9794 6.87285 28.005 6.94953 27.882C7.04131 27.7348 7.19605 27.5427 7.48534 27.1891L5.93742 25.9226ZM6.62799 25.0786L5.93742 25.9226L7.48534 27.1891L8.17591 26.345L6.62799 25.0786ZM7.80845 23.6358C7.73642 23.4619 7.86806 23.3933 7.68459 23.7001C7.50038 24.0081 7.16929 24.417 6.62799 25.0786L8.17591 26.345C8.67418 25.736 9.12277 25.192 9.4011 24.7265C9.68018 24.2598 9.95722 23.5971 9.65621 22.8704L7.80845 23.6358ZM5.95354 23.4503C6.80411 23.5354 7.32733 23.5903 7.67542 23.6779C8.02209 23.7651 7.88048 23.8097 7.80845 23.6358L9.65621 22.8704C9.3552 22.1437 8.69071 21.871 8.16337 21.7384C7.63744 21.606 6.93551 21.5385 6.15254 21.4602L5.95354 23.4503ZM4.86848 23.3418L5.95354 23.4503L6.15254 21.4602L5.06749 21.3517L4.86848 23.3418ZM4.96797 23.3468H4.96799V21.3468H4.96797V23.3468ZM2.68409 22.6037C3.00305 22.9561 3.39543 23.1074 3.74686 23.1889C4.07048 23.2639 4.4671 23.3017 4.86846 23.3418L5.06747 21.3517C4.61291 21.3063 4.36759 21.2798 4.19862 21.2406C4.05745 21.2079 4.10658 21.1949 4.16699 21.2617L2.68409 22.6037ZM2.16699 20.3567C2.16699 20.76 2.16505 21.1585 2.20751 21.4879C2.25363 21.8457 2.36513 22.2512 2.68409 22.6037L4.16699 21.2617C4.22741 21.3284 4.20963 21.376 4.19111 21.2323C4.16893 21.0603 4.16699 20.8135 4.16699 20.3567H2.16699ZM2.16699 17.6433L2.16699 20.3567H4.16699L4.16699 17.6433H2.16699ZM2.68409 15.3963C2.36513 15.7487 2.25363 16.1542 2.20751 16.512C2.16505 16.8415 2.16699 17.2399 2.16699 17.6433H4.16699C4.16699 17.1865 4.16893 16.9397 4.19111 16.7677C4.20963 16.624 4.22741 16.6716 4.16699 16.7383L2.68409 15.3963ZM4.86848 14.6582C4.46712 14.6983 4.07049 14.736 3.74687 14.8111C3.39543 14.8926 3.00305 15.0439 2.68409 15.3963L4.16699 16.7383C4.10658 16.8051 4.05745 16.7921 4.19862 16.7594C4.3676 16.7202 4.61292 16.6937 5.06749 16.6483L4.86848 14.6582ZM5.95413 14.5496L4.86848 14.6582L5.06749 16.6483L6.15314 16.5397L5.95413 14.5496ZM7.80904 14.3641C7.88107 14.1902 8.02268 14.2348 7.67601 14.322C7.32793 14.4096 6.8047 14.4646 5.95413 14.5496L6.15314 16.5397C6.9361 16.4614 7.63803 16.3939 8.16396 16.2616C8.69131 16.1289 9.35579 15.8562 9.6568 15.1295L7.80904 14.3641ZM6.62859 12.9213C7.16989 13.5829 7.50098 13.9918 7.68519 14.2999C7.86865 14.6067 7.73702 14.538 7.80905 14.3641L9.6568 15.1295C9.95781 14.4028 9.68078 13.7401 9.4017 13.2734C9.12337 12.808 8.67478 12.2639 8.1765 11.6549L6.62859 12.9213ZM5.93749 12.0767L6.62859 12.9213L8.1765 11.6549L7.48541 10.8102L5.93749 12.0767ZM4.91482 10.0102C4.89114 10.4849 5.06162 10.8693 5.2525 11.1755C5.42827 11.4574 5.68207 11.7645 5.93749 12.0767L7.48541 10.8102C7.19612 10.4566 7.04138 10.2644 6.9496 10.1172C6.87292 9.99427 6.91682 10.0199 6.91234 10.1098L4.91482 10.0102ZM6.13804 8.05564C5.85282 8.34086 5.56973 8.62121 5.36678 8.88422C5.14638 9.16983 4.9385 9.53539 4.91482 10.0102L6.91234 10.1098C6.90785 10.1997 6.86163 10.2208 6.95016 10.1061C7.05613 9.96873 7.22923 9.79289 7.55226 9.46986L6.13804 8.05564ZM8.05669 6.13699L6.13804 8.05564L7.55226 9.46986L9.47091 7.55121L8.05669 6.13699ZM10.0112 4.91376C9.53645 4.93744 9.17088 5.14533 8.88527 5.36572C8.62226 5.56868 8.34192 5.85177 8.05669 6.13699L9.47091 7.55121C9.79394 7.22817 9.96978 7.05508 10.1071 6.9491C10.2218 6.86057 10.2008 6.9068 10.1108 6.91128L10.0112 4.91376ZM12.0777 5.93644C11.7655 5.68101 11.4584 5.42722 11.1765 5.25144C10.8704 5.06056 10.486 4.89009 10.0112 4.91376L10.1108 6.91128C10.0209 6.91577 9.99533 6.87187 10.1183 6.94855C10.2655 7.04033 10.4577 7.19507 10.8113 7.48435L12.0777 5.93644ZM12.9218 6.62704L12.0777 5.93644L10.8113 7.48435L11.6553 8.17496L12.9218 6.62704ZM14.3646 7.8075C14.5385 7.73548 14.6071 7.86711 14.3003 7.68365C13.9923 7.49944 13.5834 7.16834 12.9218 6.62704L11.6553 8.17496C12.2643 8.67323 12.8084 9.12183 13.2739 9.40016C13.7406 9.67924 14.4033 9.95627 15.13 9.65526L14.3646 7.8075ZM14.5501 5.95259C14.465 6.80316 14.41 7.32639 14.3225 7.67447C14.2352 8.02114 14.1907 7.87953 14.3646 7.8075L15.13 9.65526C15.8567 9.35425 16.1294 8.68976 16.262 8.16242C16.3943 7.63649 16.4619 6.93456 16.5402 6.1516L14.5501 5.95259ZM14.6585 4.86815L14.5501 5.95259L16.5402 6.1516L16.6486 5.06715L14.6585 4.86815ZM15.3966 2.68375C15.0442 3.00271 14.8929 3.3951 14.8114 3.74653C14.7364 4.07015 14.6987 4.46678 14.6585 4.86815L16.6486 5.06715C16.6941 4.61258 16.7205 4.36726 16.7597 4.19828C16.7925 4.05712 16.8054 4.10624 16.7386 4.16666L15.3966 2.68375ZM17.6436 2.16666C17.2403 2.16666 16.8419 2.16471 16.5124 2.20718C16.1546 2.25329 15.7491 2.36479 15.3966 2.68375L16.7386 4.16666C16.6719 4.22707 16.6243 4.2093 16.768 4.19077C16.9401 4.1686 17.1868 4.16666 17.6436 4.16666V2.16666ZM20.357 2.16666H17.6436V4.16666H20.357V2.16666ZM22.604 2.68375C22.2516 2.36479 21.8461 2.25329 21.4883 2.20718C21.1588 2.16471 20.7604 2.16666 20.357 2.16666V4.16666C20.8139 4.16666 21.0606 4.1686 21.2326 4.19077C21.3764 4.2093 21.3288 4.22707 21.262 4.16666L22.604 2.68375ZM23.3421 4.86812C23.302 4.46677 23.2643 4.07014 23.1892 3.74652C23.1078 3.39509 22.9565 3.00271 22.604 2.68375L21.262 4.16666C21.1952 4.10624 21.2082 4.05712 21.2409 4.19828C21.2801 4.36726 21.3066 4.61257 21.3521 5.06714L23.3421 4.86812ZM24.3337 19C24.3337 21.9455 21.9458 24.3333 19.0003 24.3333V26.3333C23.0504 26.3333 26.3337 23.0501 26.3337 19H24.3337ZM19.0003 13.6667C21.9458 13.6667 24.3337 16.0545 24.3337 19H26.3337C26.3337 14.9499 23.0504 11.6667 19.0003 11.6667V13.6667ZM13.667 19C13.667 16.0545 16.0548 13.6667 19.0003 13.6667V11.6667C14.9502 11.6667 11.667 14.9499 11.667 19H13.667ZM19.0003 24.3333C16.0548 24.3333 13.667 21.9455 13.667 19H11.667C11.667 23.0501 14.9502 26.3333 19.0003 26.3333V24.3333Z" fill="#33363F"/>
</svg>
