<svg width="1366" height="977" viewBox="0 0 1366 977" fill="none" xmlns="http://www.w3.org/2000/svg">
<g clip-path="url(#clip0_6_66)">
<path d="M174.622 337.129C148.717 257.069 123.005 -265.085 -37.9981 37.3832L-57 35.9168V1017.03H104.906H187.2L329.458 1024C357.077 1004.53 287.05 914.853 307.05 868.119C332.05 809.702 331.1 653.69 293.479 571.725C199.192 366.308 207.004 437.204 174.622 337.129Z" fill="#01C7BE" fill-opacity="0.13"/>
<line x1="1282" y1="76.5" x2="1362" y2="76.5" stroke="#F7F7F7" stroke-width="5"/>
<path d="M642.536 309.376C588.662 226.068 334.711 62.2431 200.357 -2.52971L-19 -11V1037H325.777L525.149 809.618C663.559 715.383 670.555 890.135 756.742 846.495C827.513 810.66 806.758 623.366 728.517 538.077C532.433 324.327 709.878 413.511 642.536 309.376Z" fill="#01C7BE" fill-opacity="0.19"/>
</g>
<defs>
<clipPath id="clip0_6_66">
<rect width="1366" height="977" fill="white"/>
</clipPath>
</defs>
</svg>
