<svg width="38" height="38" viewBox="0 0 38 38" fill="none" xmlns="http://www.w3.org/2000/svg">
<path d="M4.75 11.0833H9.88109C12.7484 11.0833 14.182 11.0833 15.2449 11.8742C16.3078 12.665 16.7198 14.0382 17.5437 16.7846L18.873 21.2155C19.6969 23.9618 20.1088 25.335 21.1717 26.1258C22.2346 26.9167 23.6683 26.9167 26.5356 26.9167H33.25M33.25 26.9167L28.5 22.1667M33.25 26.9167L28.5 31.6667" stroke="#33363F" stroke-width="2"/>
<path fill-rule="evenodd" clip-rule="evenodd" d="M33.9571 10.3762L29.2071 5.62622L27.7929 7.04043L30.8358 10.0833H26.5356H26.4753C25.0929 10.0833 23.9691 10.0833 23.0614 10.1889C22.1146 10.299 21.2987 10.5333 20.5748 11.0719C19.8521 11.6096 19.3935 12.3224 19.0163 13.1958C19.3184 13.9994 19.5988 14.9342 19.9017 15.9444L19.9017 15.9444L19.9383 16.0662L20.0357 16.3909C20.3499 15.3526 20.5937 14.5884 20.8509 13.9921C21.151 13.2965 21.4296 12.9287 21.7687 12.6764C22.1077 12.4242 22.54 12.263 23.2926 12.1755C24.0712 12.0849 25.0784 12.0833 26.5356 12.0833H30.8358L27.7929 15.1262L29.2071 16.5404L33.9571 11.7904L34.6642 11.0833L33.9571 10.3762ZM17.4004 24.8042C17.0982 24.0006 16.8179 23.0658 16.5149 22.0556L16.4784 21.9338L16.381 21.6091C16.0668 22.6474 15.823 23.4116 15.5657 24.0079C15.2656 24.7035 14.987 25.0713 14.648 25.3235C14.309 25.5758 13.8767 25.737 13.1241 25.8245C12.3455 25.9151 11.3383 25.9167 9.88109 25.9167H4.75V27.9167H9.88109H9.94131C11.3238 27.9167 12.4476 27.9167 13.3552 27.8111C14.302 27.701 15.118 27.4667 15.8419 26.9281C16.5646 26.3904 17.0231 25.6775 17.4004 24.8042Z" fill="#33363F"/>
</svg>
