<svg width="38" height="38" viewBox="0 0 38 38" fill="none" xmlns="http://www.w3.org/2000/svg">
<circle cx="19.0003" cy="12.6667" r="6.33333" stroke="#33363F" stroke-width="2" stroke-linecap="round"/>
<path fill-rule="evenodd" clip-rule="evenodd" d="M25.2757 25.5C23.3391 24.7342 21.1865 24.3333 19 24.3333C16.0532 24.3333 13.1679 25.0614 10.7902 26.4297C8.41309 27.7978 6.63943 29.7535 5.82322 32.0381C5.63741 32.5582 5.90839 33.1304 6.42848 33.3162C6.94857 33.5021 7.52082 33.2311 7.70663 32.711C8.33378 30.9556 9.7406 29.3413 11.7878 28.1632C13.8344 26.9854 16.37 26.3333 19 26.3333C19.3539 26.3333 19.7061 26.3451 20.0556 26.3684C20.5977 25.8316 21.3434 25.5 22.1666 25.5L25.2757 25.5ZM31.5 33.3389C31.5239 33.3323 31.5477 33.3247 31.5715 33.3163C32.0916 33.1304 32.3626 32.5582 32.1767 32.0381C32.1119 31.8566 32.041 31.6772 31.9643 31.5H31.5V33.3389Z" fill="#33363F"/>
<path d="M28.5 22.1667L28.5 34.8333" stroke="#33363F" stroke-width="2.5" stroke-linecap="round"/>
<path d="M34.833 28.5L22.1663 28.5" stroke="#33363F" stroke-width="2.5" stroke-linecap="round"/>
</svg>
