<svg width="100" height="100" viewBox="0 0 100 100" fill="none" xmlns="http://www.w3.org/2000/svg">
<path fill-rule="evenodd" clip-rule="evenodd" d="M39.2856 0C35.3408 0 32.1428 3.19797 32.1428 7.14286V10.7143C32.1428 14.6592 35.3408 17.8571 39.2856 17.8571H60.7142C64.6591 17.8571 67.857 14.6592 67.857 10.7143V7.14286C67.857 3.19796 64.6591 0 60.7142 0H39.2856ZM23.214 7.14286H19.6428C13.7254 7.14286 8.92847 11.9398 8.92847 17.8571V89.2857C8.92847 95.2029 13.7254 100 19.6428 100H80.357C86.2742 100 91.0713 95.2029 91.0713 89.2857V17.8571C91.0713 11.9398 86.2742 7.14286 80.357 7.14286H76.7856V10.7143C76.7856 19.5903 69.59 26.7857 60.714 26.7857H39.2854C30.4094 26.7857 23.214 19.5903 23.214 10.7143V7.14286ZM71.0713 42.1429C73.4385 43.9181 73.9178 47.2759 72.1428 49.6429L50.7142 78.2143C49.0083 80.4886 45.8225 81.0343 43.4568 79.4571L32.7425 72.3143C30.2808 70.6734 29.6156 67.3473 31.2568 64.8855C32.898 62.4238 36.224 61.7586 38.6858 63.3997L45.1834 67.7315L63.5713 43.2143C65.3465 40.8474 68.7044 40.3676 71.0713 42.1429Z" fill="black"/>
</svg>
