<svg width="61" height="48" viewBox="0 0 61 48" fill="none" xmlns="http://www.w3.org/2000/svg">
<path d="M30.5 0C24.4677 0 18.5708 1.40758 13.5551 4.04473C8.53942 6.68188 4.63016 10.4302 2.32169 14.8156C0.0132152 19.201 -0.590786 24.0266 0.586063 28.6822C1.76291 33.3377 4.66775 37.6141 8.93325 40.9706C13.1988 44.327 18.6333 46.6128 24.5498 47.5388C30.4662 48.4649 36.5987 47.9896 42.1718 46.1731C47.745 44.3566 52.5084 41.2805 55.8598 37.3337C59.2112 33.3869 61 28.7467 61 24C60.9915 17.6369 57.7753 11.5363 52.0573 7.03686C46.3393 2.53744 38.5865 0.00671958 30.5 0ZM30.5 3.69231C34.7952 3.6937 39.0221 4.53865 42.7974 6.15054C46.5726 7.76243 49.777 10.0903 52.1198 12.9231H30.5C27.5367 12.9257 24.6498 13.6629 22.2492 15.0299C19.8486 16.3969 18.0563 18.3244 17.1269 20.5385L10.3583 11.3077C12.7742 8.93037 15.8391 7.01143 19.3258 5.69314C22.8126 4.37484 26.6317 3.691 30.5 3.69231ZM39.8846 24C39.8846 25.4605 39.3342 26.8883 38.303 28.1027C37.2718 29.3171 35.8062 30.2636 34.0913 30.8225C32.3765 31.3814 30.4896 31.5277 28.6692 31.2427C26.8487 30.9578 25.1765 30.2545 23.8641 29.2217C22.5516 28.1889 21.6578 26.8731 21.2957 25.4407C20.9336 24.0082 21.1195 22.5234 21.8298 21.174C22.5401 19.8247 23.7429 18.6713 25.2862 17.8599C26.8295 17.0485 28.6439 16.6154 30.5 16.6154C32.989 16.6154 35.376 17.3934 37.1359 18.7783C38.8959 20.1632 39.8846 22.0415 39.8846 24ZM4.69232 24C4.68745 20.8024 5.6484 17.6496 7.49597 14.8015L18.3088 29.5385C18.3264 29.5615 18.3469 29.5823 18.3645 29.6031C19.8548 31.6039 22.1056 33.1862 24.7995 34.1268C27.4934 35.0675 30.4946 35.3191 33.3799 34.8461L26.6054 44.0769C20.5095 43.338 14.9503 40.9082 10.9318 37.2263C6.91322 33.5445 4.70018 28.8533 4.69232 24ZM31.8754 44.2777L42.6912 29.5385C42.7147 29.5061 42.7323 29.4738 42.7557 29.4415C44.2067 27.428 44.8175 25.1068 44.5018 22.8054C44.186 20.5041 42.9598 18.3388 40.9961 16.6154H54.5481C56.0325 19.6083 56.5934 22.8356 56.1846 26.0322C55.7758 29.2288 54.409 32.3035 52.1964 35.0036C49.9839 37.7037 46.9888 39.9523 43.4573 41.5645C39.9257 43.1767 35.9584 44.1065 31.8813 44.2777H31.8754Z" fill="black"/>
</svg>
